<?xml version="1.0" encoding="utf-8"?>
<!-- Generator: Adobe Illustrator 16.0.0, SVG Export Plug-In . SVG Version: 6.00 Build 0)  -->
<!DOCTYPE svg PUBLIC "-//W3C//DTD SVG 1.1//EN" "http://www.w3.org/Graphics/SVG/1.1/DTD/svg11.dtd">
<svg version="1.1" id="Layer_1" xmlns="http://www.w3.org/2000/svg" xmlns:xlink="http://www.w3.org/1999/xlink" x="0px" y="0px"
	 width="1024px" height="768px" viewBox="0 0 1024 768" enable-background="new 0 0 1024 768" xml:space="preserve">
<g>
	<g>
		<g>
			<linearGradient id="SVGID_1_" gradientUnits="userSpaceOnUse" x1="468.4707" y1="157.8682" x2="575.7199" y2="487.9373">
				<stop  offset="0" style="stop-color:#0034FF"/>
				<stop  offset="1" style="stop-color:#0024AB"/>
			</linearGradient>
			<path fill="url(#SVGID_1_)" d="M551.137,419.389c-4.316,0-6.971-2.877-6.971-6.86c0-3.946,2.875-6.896,6.971-6.896
				c4.204,0,7.155,2.95,7.155,6.822C558.292,416.512,555.341,419.389,551.137,419.389z M551.137,406.774
				c-3.395,0-5.607,2.396-5.607,5.754c0,3.394,2.36,5.754,5.607,5.754c3.392,0,5.79-2.287,5.79-5.754
				C556.927,409.171,554.492,406.774,551.137,406.774z M554.604,416.328h-1.329l-1.218-2.621c-0.184-0.404-0.332-0.516-0.626-0.516
				h-1.66v3.137h-1.107v-7.783h2.913c1.478,0,2.398,0.774,2.398,2.027c0,1.146-0.627,1.808-1.289,2.104
				c0.256,0.109,0.404,0.368,0.479,0.552L554.604,416.328z M551.432,412.16c0.922,0,1.327-0.627,1.327-1.439
				c0-1.033-0.737-1.217-1.698-1.217h-1.289v2.656H551.432z"/>
		</g>
	</g>
	<g>
		<linearGradient id="SVGID_2_" gradientUnits="userSpaceOnUse" x1="415.4761" y1="175.0776" x2="522.726" y2="505.149">
			<stop  offset="0" style="stop-color:#0034FF"/>
			<stop  offset="1" style="stop-color:#0024AB"/>
		</linearGradient>
		<path fill="url(#SVGID_2_)" d="M448.121,287.363c0,0,0.143-0.195,0.515-0.42c0.394-0.239,0.632-0.276,0.632-0.276l4.271,7.029
			l3.362-2.043c0.138,0.102,0.281,0.26,0.391,0.44c0.108,0.181,0.178,0.37,0.209,0.55l-4.509,2.74L448.121,287.363z"/>
		<linearGradient id="SVGID_3_" gradientUnits="userSpaceOnUse" x1="424.6206" y1="172.1064" x2="531.8712" y2="502.18">
			<stop  offset="0" style="stop-color:#0034FF"/>
			<stop  offset="1" style="stop-color:#0024AB"/>
		</linearGradient>
		<path fill="url(#SVGID_3_)" d="M461.624,279.899c0.117,0.118,0.239,0.249,0.32,0.414c0.093,0.188,0.146,0.383,0.162,0.566
			l-3.583,1.765l1.346,2.735l2.994-1.475c0.117,0.118,0.246,0.26,0.327,0.425c0.081,0.165,0.133,0.359,0.149,0.541l-2.994,1.475
			l1.393,2.83l3.703-1.823c0.122,0.131,0.245,0.261,0.326,0.426c0.086,0.177,0.133,0.359,0.155,0.554l-4.905,2.415l-4.18-8.49
			L461.624,279.899z"/>
		<linearGradient id="SVGID_4_" gradientUnits="userSpaceOnUse" x1="434.8145" y1="168.793" x2="542.0648" y2="498.8658">
			<stop  offset="0" style="stop-color:#0034FF"/>
			<stop  offset="1" style="stop-color:#0024AB"/>
		</linearGradient>
		<path fill="url(#SVGID_4_)" d="M469.393,276.656c0.468-0.177,0.771-0.194,0.771-0.194l6.376,7.52c0,0-0.189,0.169-0.644,0.341
			c-0.418,0.159-0.648,0.147-0.648,0.147l-1.582-1.877l-3.643,1.378l0.044,2.459c0,0-0.177,0.165-0.571,0.314
			c-0.381,0.144-0.61,0.132-0.61,0.132l-0.199-9.855C468.688,277.022,468.963,276.819,469.393,276.656z M469.849,278.045
			c0,0,0.076,0.535,0.099,1.228l0.046,3.542l2.929-1.107l-2.298-2.69c-0.464-0.556-0.738-0.987-0.738-0.987L469.849,278.045z"/>
		<linearGradient id="SVGID_5_" gradientUnits="userSpaceOnUse" x1="445.4282" y1="165.3398" x2="552.6826" y2="495.4248">
			<stop  offset="0" style="stop-color:#0034FF"/>
			<stop  offset="1" style="stop-color:#0024AB"/>
		</linearGradient>
		<path fill="url(#SVGID_5_)" d="M480.954,272.944c1.663-0.448,3.02,0.344,3.451,1.944c0.338,1.257-0.079,2.391-1.108,3.021
			l3.241,3.241c0,0-0.241,0.16-0.737,0.293c-0.47,0.127-0.76,0.109-0.76,0.109l-3.105-3.142l-1.499,0.404l0.997,3.708
			c0,0-0.191,0.147-0.611,0.259c-0.469,0.126-0.684,0.089-0.684,0.089l-2.436-9.054L480.954,272.944z M480.146,277.737l1.792-0.482
			c0.99-0.267,1.391-1.001,1.121-2.004c-0.272-1.016-0.989-1.449-1.979-1.183l-1.79,0.481L480.146,277.737z"/>
		<linearGradient id="SVGID_6_" gradientUnits="userSpaceOnUse" x1="456.2627" y1="161.8271" x2="563.5099" y2="491.8903">
			<stop  offset="0" style="stop-color:#0034FF"/>
			<stop  offset="1" style="stop-color:#0024AB"/>
		</linearGradient>
		<path fill="url(#SVGID_6_)" d="M491.449,274.111c-0.616-0.767-1.034-1.55-1.034-1.55l-0.053,0.008c0,0,0.23,0.855,0.441,2.165
			l0.868,5.395c0,0-0.18,0.122-0.607,0.191c-0.415,0.066-0.611,0.005-0.611,0.005l-1.472-9.158c0,0,0.257-0.134,0.776-0.217
			c0.519-0.084,0.793-0.034,0.793-0.034l4.17,5.33c0.602,0.767,1.081,1.594,1.081,1.594l0.04-0.005c0,0-0.246-0.945-0.439-2.151
			l-0.871-5.408c0,0,0.181-0.123,0.608-0.192c0.428-0.069,0.612-0.005,0.612-0.005l1.472,9.157c0,0-0.232,0.131-0.75,0.214
			c-0.518,0.083-0.806,0.036-0.806,0.036L491.449,274.111z"/>
		<linearGradient id="SVGID_7_" gradientUnits="userSpaceOnUse" x1="472.6353" y1="156.4888" x2="579.8979" y2="486.5994">
			<stop  offset="0" style="stop-color:#0034FF"/>
			<stop  offset="1" style="stop-color:#0024AB"/>
		</linearGradient>
		<path fill="url(#SVGID_7_)" d="M512.53,268.962c0,0,0.109,0.235,0.115,0.563c0.005,0.343-0.096,0.594-0.096,0.594l-2.446,0.039
			l0.133,8.22c0,0-0.236,0.096-0.669,0.104c-0.473,0.006-0.673-0.082-0.673-0.082l-0.133-8.218l-2.511,0.04
			c0,0-0.109-0.222-0.115-0.577c-0.005-0.329,0.096-0.581,0.096-0.581L512.53,268.962z"/>
		<linearGradient id="SVGID_8_" gradientUnits="userSpaceOnUse" x1="480.8711" y1="153.8086" x2="588.137" y2="483.9292">
			<stop  offset="0" style="stop-color:#0034FF"/>
			<stop  offset="1" style="stop-color:#0024AB"/>
		</linearGradient>
		<path fill="url(#SVGID_8_)" d="M520.3,269.188c2.271,0.168,3.594,1.73,3.343,5.129c-0.251,3.398-1.761,4.751-4.059,4.582
			c-2.297-0.169-3.594-1.729-3.341-5.127C516.491,270.399,518.031,269.021,520.3,269.188z M520.217,270.304
			c-1.389-0.103-2.357,0.67-2.572,3.569c-0.213,2.9,0.633,3.807,2.021,3.91c1.402,0.104,2.36-0.671,2.573-3.571
			C522.452,271.312,521.621,270.407,520.217,270.304z"/>
		<linearGradient id="SVGID_9_" gradientUnits="userSpaceOnUse" x1="495.124" y1="149.1763" x2="602.3893" y2="479.2949">
			<stop  offset="0" style="stop-color:#0034FF"/>
			<stop  offset="1" style="stop-color:#0024AB"/>
		</linearGradient>
		<path fill="url(#SVGID_9_)" d="M538.348,272.082c1.68,0.384,2.505,1.72,2.135,3.334c-0.289,1.27-1.188,2.075-2.394,2.151
			l1.346,4.382c0,0-0.291,0.028-0.791-0.086c-0.473-0.108-0.722-0.26-0.722-0.26l-1.271-4.229l-1.512-0.347l-0.858,3.744
			c0,0-0.238,0.039-0.66-0.058c-0.474-0.108-0.646-0.242-0.646-0.242l2.091-9.139L538.348,272.082z M535.386,275.938l1.808,0.413
			c0.999,0.229,1.699-0.231,1.931-1.244c0.234-1.026-0.193-1.745-1.193-1.972l-1.808-0.414L535.386,275.938z"/>
		<linearGradient id="SVGID_10_" gradientUnits="userSpaceOnUse" x1="504.4453" y1="146.1538" x2="611.7059" y2="476.2581">
			<stop  offset="0" style="stop-color:#0034FF"/>
			<stop  offset="1" style="stop-color:#0024AB"/>
		</linearGradient>
		<path fill="url(#SVGID_10_)" d="M549.399,275.094c2.154,0.728,3.047,2.568,1.958,5.794c-1.091,3.225-2.888,4.159-5.067,3.424
			c-2.182-0.736-3.047-2.568-1.96-5.794C545.41,275.317,547.245,274.368,549.399,275.094z M549.042,276.153
			c-1.322-0.445-2.449,0.062-3.377,2.814c-0.93,2.753-0.34,3.84,0.982,4.286c1.331,0.45,2.447-0.062,3.377-2.814
			C550.952,277.687,550.375,276.603,549.042,276.153z"/>
		<linearGradient id="SVGID_11_" gradientUnits="userSpaceOnUse" x1="512.4375" y1="143.5601" x2="619.6959" y2="473.6575">
			<stop  offset="0" style="stop-color:#0034FF"/>
			<stop  offset="1" style="stop-color:#0024AB"/>
		</linearGradient>
		<path fill="url(#SVGID_11_)" d="M560.961,279.839c1.544,0.703,1.889,2.072,1.27,3.438c-0.453,0.993-1.229,1.305-1.786,1.384
			c0.397,0.497,0.84,1.364,0.304,2.549c-0.661,1.448-2.03,2.011-3.655,1.271l-3.258-1.48l3.919-8.621L560.961,279.839z
			 M557.293,287.431c1.078,0.49,1.771,0.141,2.196-0.793c0.457-1.006,0.194-1.703-0.858-2.18l-1.795-0.817l-1.351,2.97
			L557.293,287.431z M558.973,283.514c0.97,0.441,1.636,0.022,2.012-0.804c0.389-0.851,0.266-1.599-0.729-2.051l-1.71-0.777
			l-1.297,2.849L558.973,283.514z"/>
		<linearGradient id="SVGID_12_" gradientUnits="userSpaceOnUse" x1="520.498" y1="140.9531" x2="627.7488" y2="471.0272">
			<stop  offset="0" style="stop-color:#0034FF"/>
			<stop  offset="1" style="stop-color:#0024AB"/>
		</linearGradient>
		<path fill="url(#SVGID_12_)" d="M571.124,285.014c1.962,1.145,2.464,3.126,0.746,6.061c-1.714,2.937-3.662,3.487-5.647,2.328
			c-1.982-1.159-2.463-3.125-0.745-6.062C567.179,284.428,569.161,283.868,571.124,285.014z M570.561,285.978
			c-1.202-0.702-2.407-0.433-3.87,2.072c-1.464,2.505-1.104,3.688,0.096,4.39c1.214,0.708,2.407,0.433,3.87-2.072
			C572.121,287.862,571.774,286.687,570.561,285.978z"/>
		<linearGradient id="SVGID_13_" gradientUnits="userSpaceOnUse" x1="527.5449" y1="138.6836" x2="634.7828" y2="468.718">
			<stop  offset="0" style="stop-color:#0034FF"/>
			<stop  offset="1" style="stop-color:#0024AB"/>
		</linearGradient>
		<path fill="url(#SVGID_13_)" d="M582.801,292.886c0,0-0.054,0.254-0.245,0.522c-0.199,0.277-0.43,0.42-0.43,0.42l-1.99-1.422
			l-4.782,6.688c0,0-0.245-0.062-0.596-0.315c-0.387-0.275-0.495-0.465-0.495-0.465l4.782-6.689l-2.044-1.461
			c0,0,0.043-0.243,0.249-0.532c0.191-0.268,0.423-0.409,0.423-0.409L582.801,292.886z"/>
	</g>
	<g>
		<linearGradient id="SVGID_14_" gradientUnits="userSpaceOnUse" x1="356.9922" y1="194.084" x2="464.2433" y2="524.1592">
			<stop  offset="0" style="stop-color:#0034FF"/>
			<stop  offset="1" style="stop-color:#0024AB"/>
		</linearGradient>
		<path fill="url(#SVGID_14_)" d="M451.877,471.163c1.354,1.022,1.391,2.435,0.488,3.63c-0.657,0.871-1.483,1.004-2.043,0.961
			c0.278,0.57,0.522,1.514-0.263,2.552c-0.958,1.27-2.416,1.521-3.842,0.442l-2.854-2.154l5.704-7.554L451.877,471.163z
			 M446.643,477.77c0.943,0.711,1.697,0.523,2.315-0.295c0.666-0.881,0.562-1.617-0.361-2.314l-1.574-1.188l-1.964,2.603
			L446.643,477.77z M449.136,474.314c0.85,0.642,1.592,0.38,2.139-0.345c0.562-0.746,0.605-1.503-0.265-2.16l-1.501-1.132
			l-1.884,2.497L449.136,474.314z"/>
		<linearGradient id="SVGID_15_" gradientUnits="userSpaceOnUse" x1="364.5244" y1="191.6152" x2="471.7833" y2="521.7143">
			<stop  offset="0" style="stop-color:#0034FF"/>
			<stop  offset="1" style="stop-color:#0024AB"/>
		</linearGradient>
		<path fill="url(#SVGID_15_)" d="M460.026,483.945c-1.099,1.839-2.84,2.19-4.565,1.159c-1.714-1.025-2.203-2.741-1.118-4.558
			l3.162-5.288c0,0,0.238,0.035,0.61,0.257c0.384,0.229,0.528,0.425,0.528,0.425l-3.271,5.47c-0.647,1.082-0.393,2.091,0.69,2.737
			c1.093,0.654,2.08,0.387,2.728-0.696l3.27-5.469c0,0,0.228,0.029,0.6,0.251c0.373,0.224,0.528,0.423,0.528,0.423L460.026,483.945z
			"/>
		<linearGradient id="SVGID_16_" gradientUnits="userSpaceOnUse" x1="369.9229" y1="189.8369" x2="477.1891" y2="519.9586">
			<stop  offset="0" style="stop-color:#0034FF"/>
			<stop  offset="1" style="stop-color:#0024AB"/>
		</linearGradient>
		<path fill="url(#SVGID_16_)" d="M467.33,480.762c0,0,0.241,0.017,0.631,0.206c0.414,0.2,0.574,0.381,0.574,0.381l-4.055,8.347
			c0,0-0.252-0.021-0.643-0.211c-0.425-0.208-0.562-0.376-0.562-0.376L467.33,480.762z"/>
		<linearGradient id="SVGID_17_" gradientUnits="userSpaceOnUse" x1="374.3999" y1="188.3945" x2="481.6624" y2="518.5046">
			<stop  offset="0" style="stop-color:#0034FF"/>
			<stop  offset="1" style="stop-color:#0024AB"/>
		</linearGradient>
		<path fill="url(#SVGID_17_)" d="M472.803,483.277c0,0,0.242-0.004,0.646,0.155c0.429,0.168,0.603,0.336,0.603,0.336l-3.004,7.651
			l3.66,1.438c0.003,0.172-0.037,0.381-0.114,0.578c-0.076,0.195-0.186,0.364-0.308,0.5l-4.911-1.929L472.803,483.277z"/>
		<linearGradient id="SVGID_18_" gradientUnits="userSpaceOnUse" x1="383.1309" y1="185.5908" x2="490.3826" y2="515.6678">
			<stop  offset="0" style="stop-color:#0034FF"/>
			<stop  offset="1" style="stop-color:#0024AB"/>
		</linearGradient>
		<path fill="url(#SVGID_18_)" d="M484.195,487.144c2.343,0.654,3.389,2.243,2.451,5.601c-0.937,3.356-2.655,4.175-4.998,3.521
			l-2.812-0.788l2.547-9.119L484.195,487.144z M481.86,495.164c1.482,0.413,2.609,0.045,3.405-2.805
			c0.799-2.862,0.022-3.749-1.459-4.163l-1.431-0.4l-1.946,6.967L481.86,495.164z"/>
		<linearGradient id="SVGID_19_" gradientUnits="userSpaceOnUse" x1="398.8647" y1="180.4482" x2="506.1258" y2="510.554">
			<stop  offset="0" style="stop-color:#0034FF"/>
			<stop  offset="1" style="stop-color:#0024AB"/>
		</linearGradient>
		<path fill="url(#SVGID_19_)" d="M503.23,490.633c0.444,0.049,0.734,0.175,0.734,0.175l-3.915,5.006l-0.435,3.84
			c0,0-0.232,0.066-0.664,0.018c-0.47-0.054-0.669-0.168-0.669-0.168l0.433-3.813l-2.6-5.771c0,0,0.299-0.059,0.821,0
			c0.483,0.056,0.747,0.177,0.747,0.177l1.934,4.307l2.913-3.756C502.528,490.646,502.773,490.58,503.23,490.633z"/>
		<linearGradient id="SVGID_20_" gradientUnits="userSpaceOnUse" x1="407.127" y1="177.8057" x2="514.3754" y2="507.8724">
			<stop  offset="0" style="stop-color:#0034FF"/>
			<stop  offset="1" style="stop-color:#0024AB"/>
		</linearGradient>
		<path fill="url(#SVGID_20_)" d="M510.479,490.769c2.275,0.036,3.685,1.519,3.63,4.924c-0.056,3.406-1.485,4.844-3.787,4.806
			c-2.301-0.036-3.685-1.519-3.63-4.925C506.746,492.193,508.204,490.73,510.479,490.769z M510.461,491.884
			c-1.394-0.021-2.315,0.806-2.362,3.712c-0.047,2.907,0.847,3.763,2.241,3.786c1.408,0.022,2.315-0.805,2.362-3.711
			C512.749,492.764,511.868,491.907,510.461,491.884z"/>
		<linearGradient id="SVGID_21_" gradientUnits="userSpaceOnUse" x1="418.0308" y1="174.2207" x2="525.2917" y2="504.3262">
			<stop  offset="0" style="stop-color:#0034FF"/>
			<stop  offset="1" style="stop-color:#0024AB"/>
		</linearGradient>
		<path fill="url(#SVGID_21_)" d="M525.453,496.283c0.221,2.133-0.968,3.457-2.972,3.66c-1.99,0.203-3.41-0.883-3.623-2.99
			l-0.625-6.14c0,0,0.213-0.114,0.645-0.159c0.446-0.045,0.678,0.025,0.678,0.025l0.646,6.348c0.126,1.259,0.936,1.916,2.192,1.788
			c1.268-0.129,1.899-0.934,1.773-2.19l-0.646-6.35c0,0,0.202-0.112,0.632-0.155c0.434-0.044,0.679,0.023,0.679,0.023
			L525.453,496.283z"/>
		<linearGradient id="SVGID_22_" gradientUnits="userSpaceOnUse" x1="428.3804" y1="170.8848" x2="535.6333" y2="500.9655">
			<stop  offset="0" style="stop-color:#0034FF"/>
			<stop  offset="1" style="stop-color:#0024AB"/>
		</linearGradient>
		<path fill="url(#SVGID_22_)" d="M532.579,488.659c1.68-0.356,2.993,0.505,3.334,2.125c0.271,1.273-0.206,2.38-1.266,2.954
			l3.058,3.406c0,0-0.253,0.146-0.754,0.253c-0.475,0.102-0.764,0.068-0.764,0.068l-2.929-3.299l-1.514,0.319l0.795,3.753
			c0,0-0.202,0.136-0.625,0.226c-0.474,0.102-0.687,0.053-0.687,0.053l-1.939-9.163L532.579,488.659z M531.513,493.396l1.812-0.385
			c1.003-0.211,1.441-0.923,1.227-1.938c-0.217-1.029-0.907-1.499-1.909-1.287l-1.812,0.383L531.513,493.396z"/>
		<linearGradient id="SVGID_23_" gradientUnits="userSpaceOnUse" x1="443.2373" y1="166.0562" x2="550.4908" y2="496.1386">
			<stop  offset="0" style="stop-color:#0034FF"/>
			<stop  offset="1" style="stop-color:#0024AB"/>
		</linearGradient>
		<path fill="url(#SVGID_23_)" d="M549.616,483.354c0,0,0.183,0.184,0.3,0.491c0.121,0.319,0.112,0.59,0.112,0.59l-2.29,0.867
			l2.911,7.689c0,0-0.191,0.172-0.596,0.325c-0.444,0.166-0.661,0.149-0.661,0.149l-2.909-7.689l-2.352,0.889
			c0,0-0.175-0.172-0.302-0.504c-0.115-0.307-0.106-0.578-0.106-0.578L549.616,483.354z"/>
		<linearGradient id="SVGID_24_" gradientUnits="userSpaceOnUse" x1="453.2773" y1="162.7798" x2="560.535" y2="492.8751">
			<stop  offset="0" style="stop-color:#0034FF"/>
			<stop  offset="1" style="stop-color:#0024AB"/>
		</linearGradient>
		<path fill="url(#SVGID_24_)" d="M555.717,480.372c2.033-1.016,3.966-0.349,5.484,2.697c1.519,3.045,0.914,4.979-1.146,6.005
			c-2.059,1.025-3.967,0.349-5.487-2.698C553.062,483.355,553.68,481.387,555.717,480.372z M556.213,481.372
			c-1.246,0.621-1.681,1.778-0.385,4.378c1.297,2.599,2.481,2.947,3.728,2.325c1.261-0.628,1.684-1.78,0.387-4.377
			C558.647,481.098,557.472,480.744,556.213,481.372z"/>
		<linearGradient id="SVGID_25_" gradientUnits="userSpaceOnUse" x1="462.3428" y1="159.7964" x2="569.6115" y2="489.9255">
			<stop  offset="0" style="stop-color:#0034FF"/>
			<stop  offset="1" style="stop-color:#0024AB"/>
		</linearGradient>
		<path fill="url(#SVGID_25_)" d="M567.549,473.608c0.375-0.242,0.679-0.327,0.679-0.327l0.108,6.361l2.08,3.263
			c0,0-0.139,0.198-0.504,0.432c-0.4,0.255-0.626,0.289-0.626,0.289l-2.066-3.24l-5.659-2.853c0,0,0.195-0.233,0.639-0.517
			c0.41-0.261,0.694-0.333,0.694-0.333l4.215,2.135l-0.098-4.758C567.011,474.061,567.158,473.856,567.549,473.608z"/>
		<linearGradient id="SVGID_26_" gradientUnits="userSpaceOnUse" x1="472.9937" y1="156.3291" x2="580.2645" y2="486.4651">
			<stop  offset="0" style="stop-color:#0034FF"/>
			<stop  offset="1" style="stop-color:#0024AB"/>
		</linearGradient>
		<path fill="url(#SVGID_26_)" d="M573.067,469.334c1.237-0.975,2.248-1.306,2.248-1.306c0.237,0.3,0.396,0.691,0.363,1.053
			c0,0-0.881,0.327-1.767,1.026c-1.094,0.861-1.285,1.699-0.691,2.452c0.625,0.793,1.658,0.279,2.862-0.168
			c1.218-0.427,2.536-0.748,3.602,0.603c1.091,1.382,0.804,2.863-0.887,4.195c-1.36,1.075-2.568,1.326-2.568,1.326
			c-0.229-0.271-0.379-0.672-0.413-1.031c0,0,1.223-0.444,2.181-1.201c1.062-0.838,1.25-1.638,0.64-2.411
			c-0.578-0.733-1.369-0.527-2.257-0.193c-1.358,0.486-2.934,1.31-4.161-0.247C571.218,472.164,571.386,470.659,573.067,469.334z"/>
	</g>
	<g>
		<linearGradient id="SVGID_27_" gradientUnits="userSpaceOnUse" x1="516.9043" y1="142.1143" x2="624.1591" y2="472.2005">
			<stop  offset="0" style="stop-color:#0034FF"/>
			<stop  offset="1" style="stop-color:#0024AB"/>
		</linearGradient>
		<path fill="url(#SVGID_27_)" d="M589.835,466.555c-0.507,0-1.013-0.193-1.399-0.581c-0.774-0.773-0.774-2.028,0-2.801
			c20.583-20.584,31.917-47.948,31.917-77.056c0-31.106-13.346-60.806-36.614-81.483c-0.818-0.727-0.892-1.98-0.164-2.797
			c0.726-0.822,1.978-0.893,2.795-0.166c24.116,21.43,37.945,52.209,37.945,84.446c0,30.166-11.745,58.525-33.078,79.856
			C590.849,466.361,590.343,466.555,589.835,466.555z"/>
	</g>
	<g>
		<linearGradient id="SVGID_28_" gradientUnits="userSpaceOnUse" x1="369.4238" y1="190.0352" x2="476.6791" y2="520.123">
			<stop  offset="0" style="stop-color:#0034FF"/>
			<stop  offset="1" style="stop-color:#0024AB"/>
		</linearGradient>
		<path fill="url(#SVGID_28_)" d="M437.3,470.703c-0.471,0-0.944-0.168-1.323-0.508c-23.853-21.405-37.534-52.051-37.534-84.078
			c0-35.005,15.839-67.46,43.455-89.04c0.861-0.672,2.106-0.521,2.782,0.341c0.673,0.862,0.521,2.107-0.342,2.781
			c-26.648,20.825-41.933,52.14-41.933,85.917c0,30.904,13.201,60.476,36.219,81.129c0.814,0.731,0.882,1.983,0.151,2.798
			C438.385,470.48,437.844,470.703,437.3,470.703z"/>
	</g>
	<linearGradient id="SVGID_29_" gradientUnits="userSpaceOnUse" x1="428.5967" y1="170.8081" x2="535.8516" y2="500.8949">
		<stop  offset="0" style="stop-color:#0034FF"/>
		<stop  offset="1" style="stop-color:#0024AB"/>
	</linearGradient>
	<path fill="url(#SVGID_29_)" d="M556.189,446.273c-0.942,0.001-1.863,0.135-2.752,0.368l-14.014-30.812
		c0.726-1.376,1.142-2.943,1.142-4.606c0-5.425-4.374-9.839-9.747-9.839c-1.725,0-3.346,0.461-4.753,1.259
		c-0.996-0.141-2.157-0.281-3.46-0.404v-6.235c10.541-0.789,22.052-2.286,32.936-5.008l0.742-0.187l0.127-0.753
		c0.018-0.113,1.907-11.597,1.376-25.737c-0.495-13.127-3.236-31.316-13.49-43.428c-7.547-8.917-18.112-13.438-31.408-13.438
		c-7.497,0-13.949,1.538-19.319,4.564l-1.058-8.048c0.9-0.49,1.699-1.162,2.342-2c1.209-1.577,1.733-3.53,1.474-5.499l-0.348-2.647
		c-0.527-4.01-4.255-6.942-8.345-6.406c-1.97,0.259-3.722,1.27-4.933,2.847c-1.209,1.576-1.734,3.53-1.474,5.499l0.348,2.647
		c0.469,3.57,3.457,6.266,7.016,6.437l1.266,9.628c-2.124,1.647-4.04,3.576-5.733,5.797c-7.722,10.129-10.84,25.846-9.271,46.711
		c1.161,15.437,4.609,28.118,4.645,28.245l0.215,0.781l0.809,0.07c0.082,0.008,8.379,0.712,20.411,0.712h0.005
		c3.052,0,6.424-0.049,10.006-0.168v5.261c-1.25,0.028-2.501,0.07-3.771,0.141c-1.888-1.299-4.205-2.075-6.718-2.075
		c-6.3,0-11.425,4.827-11.425,10.76c0,1.155,0.2,2.269,0.561,3.313c-3.224,10.332-10.249,25.197-17.839,27.188
		c-2.75,0.721-5.506-0.205-8.514-2.842c1.063-1.496,1.771-3.274,1.967-5.23c0.541-5.368-3.006-10.375-8.251-11.646l-1.3-0.316
		l-0.569,5.642l0.898,0.289c2.313,0.746,3.814,3.043,3.57,5.463c-0.284,2.839-2.81,4.949-5.689,4.648
		c-2.851-0.287-4.935-2.839-4.648-5.688c0.018-0.187,0.047-0.369,0.084-0.546l0.26-1.266l-4.618-0.466l-1.099-0.002l-0.185,1.069
		c-0.037,0.211-0.073,0.422-0.095,0.639c-0.601,5.967,3.766,11.311,9.731,11.912c0.371,0.038,0.739,0.056,1.103,0.056h0.002
		c1.507,0,2.942-0.314,4.249-0.868c3.278,3.069,6.653,4.814,10.049,5.157c0.422,0.042,0.843,0.063,1.264,0.063
		c1.088,0,2.187-0.145,3.27-0.429c10.364-2.716,17.407-18.407,20.642-27.362c1.092,0.729,2.325,1.276,3.652,1.609l-7.68,30.471
		l0.371,0.455c0.176,0.215,2.199,2.631,5.685,5.206l2.796,23.426h7.332l0.309-18.158c1.679,0.493,3.458,0.87,5.35,1.05
		c0.86,0.083,1.742,0.126,2.645,0.126h0.003c3.158,0,6.316-0.547,9.457-1.629l0.34,17.299h7.345l1.051-21.73
		c1.219-0.82,2.436-1.718,3.646-2.703l0.486-0.396l-1.763-17.223h-0.002l-1.692-16.54c0.612-0.157,1.203-0.37,1.765-0.638
		l13.416,29.499c-1.969,2.042-3.052,4.719-3.047,7.562c0.012,5.396,4.053,10.015,9.398,10.743l1.325,0.182l-0.011-5.672
		l-0.921-0.195c-2.377-0.504-4.106-2.637-4.11-5.07c-0.004-1.388,0.534-2.693,1.514-3.675c0.979-0.984,2.282-1.526,3.68-1.53
		c2.861,0,5.19,2.326,5.197,5.183c0,0.187-0.011,0.369-0.028,0.55l-0.134,1.289l4.645-0.009l1.095-0.106l0.076-1.084
		c0.014-0.215,0.026-0.428,0.026-0.648C567.075,451.144,562.196,446.273,556.189,446.273z"/>
</g>
</svg>
