<?xml version="1.0" encoding="utf-8"?>
<!-- Generator: Adobe Illustrator 16.0.0, SVG Export Plug-In . SVG Version: 6.00 Build 0)  -->
<!DOCTYPE svg PUBLIC "-//W3C//DTD SVG 1.1//EN" "http://www.w3.org/Graphics/SVG/1.1/DTD/svg11.dtd">
<svg version="1.1" id="Layer_1" xmlns="http://www.w3.org/2000/svg" xmlns:xlink="http://www.w3.org/1999/xlink" x="0px" y="0px"
	 width="792px" height="612px" viewBox="0 0 792 612" enable-background="new 0 0 792 612" xml:space="preserve">
<g>
	<path fill="#122466" d="M582.054,296.983c-2.978,0-5.071,2.146-5.071,5.017c0,2.897,1.933,4.989,5.071,4.989
		c3.058,0,5.204-2.092,5.204-5.043C587.258,299.129,585.111,296.983,582.054,296.983z M582.054,306.184
		c-2.36,0-4.077-1.716-4.077-4.185c0-2.441,1.609-4.185,4.077-4.185c2.441,0,4.212,1.744,4.212,4.185
		C586.266,304.521,584.522,306.184,582.054,306.184z"/>
	<path fill="#122466" d="M583.181,302.107c0.482-0.215,0.938-0.697,0.938-1.529c0-0.912-0.67-1.476-1.743-1.476h-2.119v5.66h0.805
		v-2.28h1.207c0.215,0,0.322,0.081,0.456,0.375l0.886,1.904h0.966l-1.047-2.252C583.476,302.375,583.369,302.187,583.181,302.107z
		 M582.269,301.731h-1.207v-1.932H582c0.697,0,1.235,0.135,1.235,0.886C583.235,301.275,582.939,301.731,582.269,301.731z"/>
	<path fill="#122466" d="M354.62,318.663c2.922-2.106,5.098-5.233,5.098-9.243c0-9.243-7.069-11.622-15.224-11.622h-17.332v45.197
		h16.381c11.893,0,18.418-4.895,18.418-13.933C361.96,323.692,359.038,320.431,354.62,318.663z M338.852,306.294h3.739
		c2.991,0,5.301,1.019,5.301,4.554c0,2.649-1.768,4.757-5.709,4.757h-3.331V306.294z M343.202,334.092h-4.35v-10.194h4.69
		c3.805,0,6.048,1.562,6.048,4.893C349.59,332.052,347.959,334.092,343.202,334.092z"/>
	<path fill="#122466" d="M392.797,296.983c-9.855,0-21.001,6.117-21.001,23.515c0,15.36,7.475,23.312,20.118,23.312
		c12.301,0,20.457-7.885,20.457-23.312C412.371,303.235,403.264,296.983,392.797,296.983z M392.39,334.159
		c-7.205,0-8.564-7.815-8.564-14.137c0-6.729,2.175-13.32,8.292-13.32c6.864,0,8.36,8.29,8.36,14
		C400.478,327.567,398.643,334.159,392.39,334.159z"/>
	<polygon fill="#122466" points="419.287,307.992 431.315,307.992 431.315,342.995 442.938,342.995 442.938,307.992 
		455.443,307.992 455.443,297.798 419.287,297.798 	"/>
	<path fill="#122466" d="M483.224,296.983c-9.854,0-21.001,6.117-21.001,23.515c0,15.36,7.477,23.312,20.118,23.312
		c12.302,0,20.457-7.885,20.457-23.312C502.798,303.235,493.691,296.983,483.224,296.983z M482.816,334.159
		c-7.204,0-8.562-7.815-8.562-14.137c0-6.729,2.174-13.32,8.29-13.32c6.866,0,8.361,8.29,8.361,14
		C490.905,327.567,489.069,334.159,482.816,334.159z"/>
	<path fill="#122466" d="M292.61,320.498c0-17.263-9.107-23.515-19.574-23.515c-9.854,0-21.001,6.117-21.001,23.515
		c0,15.36,7.475,23.312,20.118,23.312C284.454,343.811,292.61,335.926,292.61,320.498z M264.065,320.022
		c0-6.729,2.175-13.32,8.292-13.32c6.864,0,8.361,8.29,8.361,14c0,6.865-1.836,13.457-8.088,13.457
		C265.424,334.159,264.065,326.344,264.065,320.022z"/>
	<rect x="515.083" y="297.798" fill="#122466" width="11.688" height="45.197"/>
	<path fill="#122466" d="M539.192,311.187c0,9.108,7.205,11.896,12.981,13.662c3.942,1.155,6.865,2.106,6.865,4.894
		c0,3.125-2.175,3.94-4.689,3.94c-3.874,0-9.787-2.175-12.913-4.146l-3.942,9.584c2.922,1.971,9.991,4.689,16.786,4.689
		c10.06,0,17.265-5.03,17.265-14.478c0-9.106-6.661-11.825-12.847-13.796c-4.212-1.36-7.341-2.379-7.341-5.233
		c0-2.516,2.107-3.535,4.283-3.535c3.126,0,6.933,1.972,10.535,4.622l6.049-7.679c-4.011-3.875-10.127-6.729-16.584-6.729
		C546.262,296.983,539.192,302.081,539.192,311.187z"/>
	<path fill="#122466" d="M279.429,268.141c0.062-0.275,0.102-0.554,0.102-0.841c0-2.405-2.231-4.427-5.269-5.043v-5.643
		c2.616-0.824,4.514-3.268,4.514-6.156c0-3.564-2.89-6.454-6.454-6.454s-6.454,2.889-6.454,6.454c0,2.888,1.897,5.332,4.512,6.156
		v5.643c-3.037,0.617-5.266,2.639-5.266,5.043c0,0.163,0.013,0.325,0.033,0.485c-15.114,2.027-27.889,11.539-34.461,24.676
		c4.592,0.419,8.262,1.687,10.636,4.151c5.734-10.641,16.958-17.904,29.87-17.904c18.714,0,33.938,15.225,33.938,33.937
		c0,0,0.229,2.887,0.229,5.333s-0.229,6.466-0.229,6.466c0,18.714-15.224,33.938-33.938,33.938c-12.905,0-24.133-7.252-29.87-17.885
		l-6.515-14.832c-0.68-1.631-1.767-2.923-2.991-3.534c3.535-1.768,7-5.777,7-11.487c0-9.65-7-12.844-17.466-12.844h-16.176v45.197
		h11.689v-16.923h3.195c1.767,0,2.855,0.883,3.603,2.582l5.863,13.446c-0.004,0-0.009,0-0.009,0
		c6.891,16.212,22.978,27.61,41.677,27.61c24.962,0,45.269-20.308,45.269-45.269c0-1.364,0.103-5.44,0.103-5.44
		c0.119-1.334-0.103-4.993-0.103-6.358C316.46,290.498,300.469,272.026,279.429,268.141z M221.281,317.1h-4.418v-10.195h3.534
		c4.214,0,6.457,0.952,6.457,4.69S224.748,317.1,221.281,317.1z"/>
	<polygon fill="#122466" points="329.114,350.768 328.105,350.768 328.105,358.259 330.764,358.259 330.764,357.405 
		329.114,357.405 	"/>
	<polygon fill="#122466" points="335.37,358.259 338.053,358.259 338.053,357.405 336.379,357.405 336.379,354.849 337.863,354.849 
		337.863,353.994 336.379,353.994 336.379,351.621 338.053,351.621 338.053,350.768 335.37,350.768 	"/>
	<path fill="#122466" d="M344.021,350.768l-1.63,7.491h0.971l0.286-1.46h1.484l0.281,1.46h1l-1.607-7.491H344.021z M343.79,356.019
		l0.184-0.961c0.097-0.518,0.181-1.007,0.251-1.468c0.071-0.461,0.129-0.916,0.175-1.366c0.094,0.922,0.216,1.788,0.364,2.601
		l0.223,1.194H343.79z"/>
	<path fill="#122466" d="M353.778,354.011c0.181-0.324,0.27-0.755,0.27-1.292c0-0.699-0.169-1.218-0.509-1.559
		c-0.268-0.261-0.678-0.393-1.228-0.393h-1.329v7.491h1.009v-3.668l1.374,3.668h1.023l-1.378-3.644
		C353.342,354.537,353.598,354.336,353.778,354.011z M351.99,354.087v-2.489h0.17c0.159,0,0.295,0.023,0.41,0.073
		c0.114,0.048,0.209,0.123,0.282,0.228c0.072,0.104,0.125,0.237,0.16,0.402c0.034,0.165,0.05,0.364,0.05,0.597
		c0,0.431-0.08,0.736-0.242,0.918C352.658,353.997,352.381,354.087,351.99,354.087z"/>
	<path fill="#122466" d="M361.623,353.562c0,0.414,0.02,0.855,0.058,1.324c0.038,0.47,0.098,0.994,0.179,1.573
		c-0.223-0.958-0.48-1.859-0.771-2.703l-1.005-2.989h-0.94v7.491h0.994l-0.054-3.265c0-0.093,0-0.178-0.001-0.252
		c-0.003-0.074-0.006-0.138-0.009-0.189l-0.053-0.927l-0.054-0.762c-0.003-0.042-0.009-0.094-0.014-0.153
		c-0.006-0.06-0.014-0.132-0.024-0.216c0.019,0.084,0.036,0.158,0.05,0.224c0.014,0.064,0.025,0.119,0.032,0.165
		c0.078,0.362,0.162,0.708,0.255,1.038c0.092,0.33,0.189,0.651,0.293,0.965l1.131,3.372h0.946v-7.491h-1.014V353.562z"/>
	<polygon fill="#122466" points="373.202,351.651 374.366,351.651 374.366,358.259 375.356,358.259 375.356,351.651 
		376.487,351.651 376.487,350.768 373.202,350.768 	"/>
	<path fill="#122466" d="M384.266,351.316c-0.304-0.431-0.771-0.646-1.398-0.646c-0.702,0-1.201,0.279-1.494,0.836
		c-0.291,0.553-0.437,1.496-0.437,2.828c0,1.495,0.146,2.535,0.441,3.119c0.298,0.6,0.81,0.898,1.538,0.898
		c0.693,0,1.185-0.277,1.481-0.835c0.293-0.556,0.441-1.496,0.441-2.818c0-0.944-0.046-1.662-0.137-2.154
		C384.612,352.014,384.466,351.604,384.266,351.316z M383.591,356.867c-0.126,0.375-0.359,0.562-0.699,0.562
		c-0.346,0-0.582-0.2-0.708-0.602c-0.123-0.423-0.185-1.184-0.185-2.281c0-1.189,0.058-1.981,0.175-2.377
		c0.119-0.391,0.359-0.587,0.718-0.587c0.359,0,0.597,0.214,0.713,0.641c0.117,0.424,0.175,1.284,0.175,2.581
		C383.78,355.808,383.718,356.495,383.591,356.867z"/>
	<path fill="#122466" d="M400.774,353.267c0-0.847-0.288-1.501-0.863-1.96c-0.453-0.359-1.136-0.539-2.048-0.539h-2.072v7.491h2.015
		v-2.619l-0.015-0.496c0.035,0.104,0.064,0.194,0.089,0.269c0.023,0.073,0.041,0.134,0.051,0.179l1,2.668h2.188l-1.504-3.115
		C400.389,354.798,400.774,354.172,400.774,353.267z M398.533,353.971c-0.155,0.177-0.351,0.267-0.584,0.267h-0.134v-1.786h0.072
		c0.585,0,0.878,0.28,0.878,0.84C398.766,353.566,398.688,353.792,398.533,353.971z"/>
	<path fill="#122466" d="M408.344,350.632c-0.705,0-1.314,0.261-1.829,0.781c-0.691,0.702-1.038,1.716-1.038,3.042
		c0,1.385,0.331,2.424,0.995,3.115c0.527,0.547,1.16,0.82,1.896,0.82c0.831,0,1.506-0.355,2.024-1.067
		c0.521-0.715,0.78-1.643,0.78-2.786c0-1.192-0.255-2.142-0.767-2.848C409.896,350.984,409.208,350.632,408.344,350.632z
		 M408.868,355.984c-0.129,0.343-0.313,0.514-0.554,0.514c-0.232,0-0.414-0.174-0.545-0.521c-0.132-0.348-0.197-0.837-0.197-1.468
		c0-0.64,0.07-1.125,0.209-1.456c0.143-0.355,0.333-0.533,0.572-0.533c0.479,0,0.719,0.677,0.719,2.033
		C409.072,355.165,409.004,355.641,408.868,355.984z"/>
	<path fill="#122466" d="M419.567,354.417c0.933-0.077,1.397-0.586,1.397-1.523c0-0.632-0.215-1.146-0.645-1.544
		c-0.424-0.387-1.076-0.582-1.956-0.582h-2.354v7.491h2.834c0.677,0,1.222-0.196,1.636-0.591c0.418-0.392,0.626-0.909,0.626-1.553
		c0-0.512-0.124-0.902-0.371-1.174C420.487,354.669,420.098,354.495,419.567,354.417z M418.035,352.394
		c0.048-0.004,0.089-0.006,0.123-0.007c0.034-0.002,0.062-0.004,0.084-0.004c0.477,0,0.714,0.217,0.714,0.651
		c0,0.203-0.069,0.361-0.211,0.476c-0.141,0.112-0.332,0.17-0.575,0.17h-0.135V352.394z M418.814,356.444
		c-0.151,0.133-0.353,0.199-0.605,0.199c-0.019,0-0.043,0-0.072-0.002c-0.03-0.003-0.062-0.004-0.102-0.008v-1.437h0.16
		c0.262,0,0.468,0.063,0.619,0.189c0.149,0.127,0.224,0.301,0.224,0.524S418.964,356.312,418.814,356.444z"/>
	<path fill="#122466" d="M428.595,350.632c-0.705,0-1.315,0.261-1.829,0.781c-0.693,0.702-1.039,1.716-1.039,3.042
		c0,1.385,0.332,2.424,0.995,3.115c0.527,0.547,1.16,0.82,1.896,0.82c0.831,0,1.505-0.355,2.024-1.067
		c0.521-0.715,0.78-1.643,0.78-2.786c0-1.192-0.255-2.142-0.767-2.848C430.146,350.984,429.458,350.632,428.595,350.632z
		 M429.119,355.984c-0.131,0.343-0.314,0.514-0.555,0.514c-0.232,0-0.413-0.174-0.545-0.521c-0.131-0.348-0.197-0.837-0.197-1.468
		c0-0.64,0.07-1.125,0.209-1.456c0.143-0.355,0.333-0.533,0.573-0.533c0.479,0,0.718,0.677,0.718,2.033
		C429.322,355.165,429.253,355.641,429.119,355.984z"/>
	<polygon fill="#122466" points="435.796,352.562 436.912,352.562 436.912,358.259 438.936,358.259 438.936,352.562 
		440.096,352.562 440.096,350.768 435.796,350.768 	"/>
	<polygon fill="#122466" points="444.21,359.943 444.72,360.084 445.68,357.449 444.876,357.212 	"/>
	<path fill="#122466" d="M458.74,354.451c0.351-0.127,0.598-0.312,0.737-0.559c0.138-0.246,0.208-0.623,0.208-1.131
		c0-1.33-0.535-1.994-1.605-1.994h-1.368v7.491h1.318c1.178,0,1.767-0.686,1.767-2.062c0-0.502-0.076-0.876-0.229-1.126
		C459.421,354.818,459.144,354.612,458.74,354.451z M457.662,351.583c0.006-0.003,0.022-0.005,0.048-0.005h0.045h0.077
		c0.582,0,0.873,0.404,0.873,1.214c0,0.478-0.076,0.812-0.228,1.005c-0.152,0.18-0.424,0.27-0.815,0.27V351.583z M458.521,357.13
		c-0.158,0.177-0.444,0.266-0.858,0.266v-2.527c0.404,0,0.687,0.098,0.849,0.291c0.166,0.19,0.248,0.525,0.248,1.004
		C458.759,356.629,458.68,356.951,458.521,357.13z"/>
	<path fill="#122466" d="M467.23,356.207c0,0.484-0.048,0.808-0.146,0.965c-0.093,0.156-0.288,0.233-0.582,0.233
		c-0.295,0-0.491-0.089-0.591-0.267c-0.098-0.178-0.146-0.537-0.146-1.077v-5.294h-0.991v5.294c0,0.818,0.096,1.371,0.287,1.659
		c0.274,0.42,0.75,0.631,1.422,0.631c0.611,0,1.066-0.162,1.362-0.49c0.25-0.287,0.375-0.839,0.375-1.654v-5.439h-0.991V356.207z"/>
	<rect x="473.351" y="350.768" fill="#122466" width="1.011" height="7.491"/>
	<polygon fill="#122466" points="480.5,350.768 479.49,350.768 479.49,358.259 482.149,358.259 482.149,357.405 480.5,357.405 	"/>
	<path fill="#122466" d="M489.593,351.326c-0.188-0.207-0.402-0.352-0.641-0.433c-0.26-0.084-0.577-0.126-0.956-0.126h-1.242v7.491
		h0.815c0.945,0,1.6-0.163,1.965-0.49c0.298-0.262,0.512-0.642,0.641-1.14c0.133-0.521,0.199-1.192,0.199-2.018
		c0-0.9-0.061-1.591-0.181-2.072C490.075,352.041,489.875,351.637,489.593,351.326z M488.996,356.817
		c-0.207,0.372-0.618,0.56-1.232,0.56v-5.76h0.127c0.543,0,0.916,0.217,1.121,0.65c0.202,0.434,0.304,1.227,0.304,2.383
		C489.315,355.723,489.209,356.446,488.996,356.817z"/>
	<path fill="#122466" d="M503.195,352.462l-0.059,0.261l-0.155,0.67c-0.039,0.158-0.087,0.438-0.146,0.84
		c-0.067-0.401-0.193-0.896-0.379-1.484c-0.022-0.068-0.041-0.132-0.058-0.189c-0.017-0.06-0.033-0.111-0.048-0.16l-0.495-1.631
		h-1.067l1.562,4.271v3.221h1.009v-3.221l1.305-4.271h-1.052L503.195,352.462z"/>
	<path fill="#122466" d="M512.309,351.316c-0.304-0.431-0.771-0.646-1.396-0.646c-0.703,0-1.201,0.279-1.495,0.836
		c-0.291,0.553-0.437,1.496-0.437,2.828c0,1.495,0.146,2.535,0.44,3.119c0.299,0.6,0.811,0.898,1.539,0.898
		c0.692,0,1.186-0.277,1.48-0.835c0.293-0.556,0.44-1.496,0.44-2.818c0-0.944-0.044-1.662-0.135-2.154
		C512.654,352.014,512.509,351.604,512.309,351.316z M511.635,356.867c-0.126,0.375-0.359,0.562-0.698,0.562
		c-0.348,0-0.583-0.2-0.71-0.602c-0.122-0.423-0.184-1.184-0.184-2.281c0-1.189,0.058-1.981,0.175-2.377
		c0.12-0.391,0.358-0.587,0.719-0.587c0.358,0,0.597,0.214,0.712,0.641c0.117,0.424,0.176,1.284,0.176,2.581
		C511.824,355.808,511.761,356.495,511.635,356.867z"/>
	<path fill="#122466" d="M520.311,356.207c0,0.484-0.048,0.808-0.146,0.965c-0.095,0.156-0.288,0.233-0.583,0.233
		c-0.294,0-0.492-0.089-0.592-0.267c-0.096-0.178-0.145-0.537-0.145-1.077v-5.294h-0.99v5.294c0,0.818,0.095,1.371,0.285,1.659
		c0.276,0.42,0.75,0.631,1.422,0.631c0.612,0,1.066-0.162,1.364-0.49c0.249-0.287,0.373-0.839,0.373-1.654v-5.439h-0.989V356.207z"
		/>
	<path fill="#122466" d="M529.228,354.011c0.179-0.324,0.269-0.755,0.269-1.292c0-0.699-0.169-1.218-0.51-1.559
		c-0.269-0.261-0.678-0.393-1.227-0.393h-1.33v7.491h1.01v-3.668l1.373,3.668h1.023l-1.377-3.644
		C528.791,354.537,529.048,354.336,529.228,354.011z M527.439,354.087v-2.489h0.17c0.157,0,0.295,0.023,0.409,0.073
		c0.115,0.048,0.209,0.123,0.281,0.228c0.073,0.104,0.126,0.237,0.161,0.402c0.033,0.165,0.051,0.364,0.051,0.597
		c0,0.431-0.081,0.736-0.242,0.918C528.107,353.997,527.83,354.087,527.439,354.087z"/>
	<polygon fill="#122466" points="540.047,352.562 541.163,352.562 541.163,358.259 543.187,358.259 543.187,352.562 
		544.347,352.562 544.347,350.768 540.047,350.768 	"/>
	<path fill="#122466" d="M551.571,350.632c-0.705,0-1.314,0.261-1.829,0.781c-0.691,0.702-1.039,1.716-1.039,3.042
		c0,1.385,0.332,2.424,0.995,3.115c0.528,0.547,1.16,0.82,1.897,0.82c0.832,0,1.506-0.355,2.023-1.067
		c0.521-0.715,0.782-1.643,0.782-2.786c0-1.192-0.257-2.142-0.768-2.848C553.122,350.984,552.436,350.632,551.571,350.632z
		 M552.096,355.984c-0.129,0.343-0.312,0.514-0.553,0.514c-0.233,0-0.415-0.174-0.546-0.521c-0.132-0.348-0.197-0.837-0.197-1.468
		c0-0.64,0.07-1.125,0.209-1.456c0.143-0.355,0.333-0.533,0.572-0.533c0.479,0,0.718,0.677,0.718,2.033
		C552.299,355.165,552.231,355.641,552.096,355.984z"/>
	<path fill="#122466" d="M561.533,351.889c-0.041,0.122-0.09,0.283-0.146,0.482c-0.055,0.199-0.119,0.436-0.193,0.712
		c-0.046-0.186-0.097-0.378-0.153-0.578c-0.056-0.2-0.121-0.409-0.191-0.626l-0.363-1.111h-2.112l1.859,4.318v3.173h2.023v-3.173
		l1.743-4.318h-2.097L561.533,351.889z"/>
	<path fill="#122466" d="M570.88,353.767l-0.32-0.238c-0.274-0.197-0.411-0.396-0.411-0.597c0-0.122,0.051-0.228,0.154-0.315
		c0.101-0.091,0.229-0.136,0.384-0.136c0.204,0,0.41,0.073,0.621,0.222c0.21,0.146,0.398,0.348,0.562,0.603v-2.29
		c-0.488-0.255-0.974-0.383-1.455-0.383c-0.541,0-1.001,0.162-1.384,0.485c-0.139,0.113-0.262,0.244-0.369,0.391
		c-0.105,0.147-0.2,0.31-0.281,0.487c-0.16,0.382-0.242,0.747-0.242,1.098c0,0.202,0.022,0.397,0.067,0.581
		c0.046,0.185,0.117,0.363,0.215,0.536c0.097,0.173,0.224,0.342,0.379,0.505c0.155,0.164,0.341,0.327,0.562,0.492l0.329,0.258
		c0.24,0.19,0.359,0.388,0.359,0.588c0,0.139-0.055,0.254-0.166,0.346c-0.109,0.092-0.251,0.139-0.427,0.139
		c-0.463,0-0.893-0.271-1.289-0.815v2.354c0.542,0.21,1.052,0.315,1.527,0.315c0.689,0,1.259-0.24,1.708-0.718
		c0.449-0.479,0.675-1.087,0.675-1.825c0-0.434-0.095-0.812-0.281-1.135C571.612,354.389,571.308,354.073,570.88,353.767z"/>
</g>
</svg>
