<?xml version="1.0" encoding="utf-8"?>
<!-- Generator: Adobe Illustrator 16.0.0, SVG Export Plug-In . SVG Version: 6.00 Build 0)  -->
<!DOCTYPE svg PUBLIC "-//W3C//DTD SVG 1.1//EN" "http://www.w3.org/Graphics/SVG/1.1/DTD/svg11.dtd">
<svg version="1.1" id="Layer_1" xmlns="http://www.w3.org/2000/svg" xmlns:xlink="http://www.w3.org/1999/xlink" x="0px" y="0px"
	 width="1024px" height="768px" viewBox="0 0 1024 768" enable-background="new 0 0 1024 768" xml:space="preserve">
<g>
	<g>
		<defs>
			<path id="SVGID_1_" d="M609.925,520.428c-2.535,0.005-4.951,0.489-7.192,1.331l-31.346-68.924
				c1.817-2.863,2.885-6.261,2.885-9.915c0-10.167-8.154-18.408-18.213-18.408c-2.855,0-5.478,0.683-7.883,1.867
				c-2.38-0.317-5.176-0.627-8.176-0.885v-17.797c23-1.625,48.055-4.823,71.728-10.741c0,0,28.851-172.479-89.987-172.479
				c-17.928,0-32.017,4.174-42.998,11.255l-2.514-19.049c6.348-1.71,10.606-7.884,9.726-14.581l-0.742-5.619
				c-0.959-7.292-7.649-12.427-14.942-11.468c-7.292,0.96-12.428,7.649-11.468,14.942l0.738,5.619
				c0.88,6.696,6.594,11.559,13.169,11.569l2.742,20.851c-57.229,42.351-22.271,169.689-22.271,169.689S482,410.163,520,408.755
				v16.086c-3,0.042-6.627,0.159-10.215,0.36c-3.229-2.722-7.277-4.358-11.704-4.358c-10.49,0-18.987,9.119-18.987,20.367
				c0,3.335,0.766,6.475,2.092,9.253c-3.542,18.223-14.942,58.114-33.872,65.17c-6.938,2.582-14.407,0.638-22.793-5.929
				c2.451-3.392,4.082-7.545,4.082-12.049c0-10.417-7.602-19.008-17.602-20.396v7.195c6,1.308,10.494,6.717,10.494,13.2
				c0,7.459-6.131,13.506-13.59,13.506c-7.46,0-13.548-6.163-13.548-13.622c0-0.48-0.016-0.539,0.034-1.539h-7.112
				c-0.033,1-0.072,1.059-0.072,1.539c0,11.385,9.229,20.672,20.614,20.672c4.171,0,8.046-1.219,11.29-3.349
				c7.622,6.172,15.044,9.293,22.167,9.293c2.93,0,5.809-0.519,8.633-1.569c21.878-8.154,33.147-46.781,37.274-64.727
				c1.556,1.174,3.277,2.11,5.127,2.744l-9.957,39.509l0,0.001l-6.864,27.234c0,0,0.158,0.193,0.467,0.545
				c1.144,1.303,4.364,4.558,9.315,8.437L490.991,584h10.933l0.641-37.521c6.271,2.559,13.467,4.466,21.416,4.577
				c8.243,0.116,17.298-1.755,26.963-6.284L551.714,584h10.808l2.306-47.447c1.569-1.139,3.15-2.239,4.743-3.538l-3.379-32.956l0,0
				l-4.079-39.823c1.3-0.464,2.53-1.054,3.676-1.788l30.539,67.159c-4.278,3.785-6.985,9.31-6.974,15.472
				c0.021,10.42,7.773,18.995,17.812,20.362l-0.015-7.193c-6.096-1.294-10.678-6.696-10.69-13.178
				c-0.013-7.459,6.021-13.519,13.481-13.533c7.457-0.015,13.517,6.021,13.531,13.478c0.002,0.481-0.024,0.956-0.073,1.422
				l7.113-0.015c0.031-0.471,0.068-0.94,0.068-1.42C630.559,529.616,621.312,520.405,609.925,520.428z"/>
		</defs>
		<clipPath id="SVGID_2_">
			<use xlink:href="#SVGID_1_"  overflow="visible"/>
		</clipPath>
		<g clip-path="url(#SVGID_2_)">
			<g>
				<g>
					<polygon fill="#19347F" points="562.521,584.438 564.93,534.66 550.901,542.912 551.714,584.438 					"/>
				</g>
				<g>
					<polygon fill="#19347F" points="501.924,584.438 502.725,537.251 484.568,530.648 490.991,584.438 					"/>
				</g>
				<g>
					<polygon fill="#091444" points="520.056,402.732 520.056,431.616 539.861,431.616 539.861,404.384 					"/>
				</g>
				<g>
					<path fill="#122466" d="M453.208,407.684c0,0,85.827,7.428,158.45-10.728c0,0,28.885-172.479-89.953-172.479
						S453.208,407.684,453.208,407.684z"/>
				</g>
				<g>
					
						<rect x="542.437" y="485.963" transform="matrix(0.414 0.9103 -0.9103 0.414 788.0204 -244.7032)" fill="#122466" width="83.251" height="7.426"/>
				</g>
				<g>
					<path fill="#122466" d="M441.276,524.17c-7.263,0-14.836-3.222-22.616-9.638l4.724-5.731c8.851,7.299,16.68,9.53,23.931,6.832
						c20.031-7.466,31.636-51.711,34.417-68.131l7.321,1.24c-0.435,2.582-11.034,63.375-39.144,73.851
						C447.085,523.645,444.206,524.17,441.276,524.17z"/>
				</g>
				<g>
					<path fill="#122466" d="M410.662,477.26v7.195c6.093,1.308,10.663,6.717,10.663,13.2c0,7.459-6.047,13.506-13.506,13.506
						c-7.46,0-13.506-6.047-13.506-13.506c0-0.48,0.027-0.954,0.076-1.422h-7.112c-0.033,0.473-0.072,0.942-0.072,1.422
						c0,11.385,9.229,20.614,20.614,20.614c11.384,0,20.614-9.229,20.614-20.614C428.433,487.238,420.698,478.647,410.662,477.26z"
						/>
				</g>
				<g>
					<path fill="#122466" d="M607.165,561.442l-0.015-7.194c-6.096-1.294-10.678-6.697-10.69-13.179
						c-0.013-7.459,6.021-13.519,13.481-13.533c7.457-0.015,13.517,6.021,13.531,13.478c0.002,0.481-0.024,0.956-0.073,1.422
						l7.113-0.015c0.031-0.471,0.068-0.94,0.068-1.42c-0.022-11.385-9.27-20.596-20.656-20.573
						c-11.384,0.022-20.594,9.27-20.571,20.654C589.375,551.501,597.127,560.075,607.165,561.442z"/>
				</g>
				<g>
					<polygon fill="#091444" points="454.033,348.265 459.81,392.829 600.104,381.275 600.104,340.838 					"/>
				</g>
				<g>
					<ellipse fill="#091444" cx="498.096" cy="441.21" rx="18.995" ry="20.364"/>
				</g>
				<g>
					<ellipse fill="#091444" cx="556.06" cy="442.92" rx="18.212" ry="18.406"/>
				</g>
				<g>
					<rect x="538.725" y="499.494" fill="#091444" width="0" height="0.619"/>
				</g>
				<g>
					
						<ellipse transform="matrix(0.7789 0.6272 -0.6272 0.7789 260.818 -245.8112)" fill="#19347F" cx="478.998" cy="246.965" rx="6.703" ry="8.356"/>
				</g>
				<g>
					<path fill="#091444" d="M485.95,202.101c0.959,7.293-4.176,13.982-11.468,14.942l0,0c-7.293,0.959-13.983-4.176-14.942-11.468
						l-0.738-5.619c-0.959-7.292,4.175-13.982,11.468-14.942l0,0c7.292-0.959,13.982,4.176,14.941,11.468L485.95,202.101z"/>
				</g>
				<g>
					<path fill="#091444" d="M480.255,247.364l-4.963-37.733l-3.51,0.461l4.94,37.569c-0.021,0.112,0.535,1.314,1.992,0.981
						C480.157,248.312,480.255,247.364,480.255,247.364z"/>
				</g>
				<g>
					<path fill="#19347F" d="M501.074,425.84L475.49,527.348c0,0,40.438,49.515,94.08,5.776l-10.729-104.808
						C558.842,428.316,537.386,422.538,501.074,425.84z"/>
				</g>
				<g>
					<path fill="#091444" d="M475.49,527.348c0,0,40.437,49.515,94.08,5.776l-3.379-33.011h-83.837L475.49,527.348z"/>
				</g>
				<g>
					<rect x="537.799" y="499.494" fill="#D6800D" width="19.187" height="6.809"/>
				</g>
				<g>
					<ellipse fill="#091444" cx="524.181" cy="314.843" rx="33.011" ry="36.723"/>
				</g>
				<g>
					<ellipse fill="#122466" cx="524.181" cy="314.843" rx="27.076" ry="30.122"/>
				</g>
				<g>
					<ellipse fill="#19347F" cx="524.181" cy="307.002" rx="20.028" ry="22.282"/>
				</g>
				<g>
					<ellipse fill="#5B83DD" cx="533.671" cy="296.444" rx="5.586" ry="6.215"/>
				</g>
				<g>
					<ellipse fill="#5B83DD" cx="503.823" cy="432.029" rx="2.543" ry="2.83"/>
				</g>
				<g>
					<ellipse fill="#5B83DD" cx="555.128" cy="432.029" rx="2.543" ry="2.83"/>
				</g>
				<g>
					<ellipse fill="#19347F" cx="492.614" cy="534.775" rx="2.543" ry="2.828"/>
				</g>
				<g>
					<ellipse fill="#19347F" cx="555.747" cy="535.04" rx="2.543" ry="2.83"/>
				</g>
				<g>
					<ellipse fill="#5B83DD" cx="468.063" cy="196.541" rx="5.587" ry="6.216"/>
				</g>
				<g>
					<path fill="#5B83DD" d="M510.509,374.964c-23.566,0-40.578-4.496-40.916-4.587c-0.658-0.181-1.047-0.861-0.868-1.52
						c0.179-0.658,0.858-1.042,1.521-0.87c0.667,0.184,67.308,17.757,119.445-17.717c0.561-0.38,1.334-0.239,1.718,0.328
						c0.386,0.566,0.24,1.334-0.325,1.72C564.47,370.424,534.184,374.964,510.509,374.964z"/>
				</g>
				<g opacity="0.2">
					<ellipse fill="#FFFFFF" cx="466.639" cy="193.689" rx="5.177" ry="5.759"/>
				</g>
				<g opacity="0.2">
					<ellipse fill="#FFFFFF" cx="526.656" cy="295.103" rx="3.938" ry="4.382"/>
				</g>
				<g>
					<polygon fill="#19347F" points="494.471,388.393 494.471,393.346 566.27,388.084 565.65,382.205 					"/>
				</g>
			</g>
		</g>
	</g>
	<path fill="#122466" d="M583.664,446.065c-4.318,0-7.353,3.112-7.353,7.272c0,4.201,2.801,7.233,7.353,7.233
		c4.432,0,7.544-3.032,7.544-7.312C591.208,449.178,588.096,446.065,583.664,446.065z M583.664,459.405
		c-3.424,0-5.912-2.489-5.912-6.067c0-3.539,2.334-6.066,5.912-6.066c3.538,0,6.106,2.527,6.106,6.066
		C589.771,456.994,587.242,459.405,583.664,459.405z"/>
	<path fill="#122466" d="M585.297,453.494c0.699-0.312,1.361-1.012,1.361-2.217c0-1.322-0.971-2.14-2.528-2.14h-3.071v8.206h1.166
		v-3.306h1.75c0.312,0,0.467,0.117,0.662,0.544l1.283,2.762h1.4l-1.518-3.266C585.726,453.883,585.569,453.609,585.297,453.494z
		 M583.975,452.949h-1.75v-2.801h1.361c1.011,0,1.79,0.195,1.79,1.283C585.376,452.287,584.947,452.949,583.975,452.949z"/>
</g>
</svg>
